<?xml version="1.0" encoding="UTF-8"?>
<svg xmlns="http://www.w3.org/2000/svg" xmlns:xlink="http://www.w3.org/1999/xlink" width="500px" height="500px" viewBox="0 0 500 500" version="1.1">
<g id="surface921">
<path style=" stroke:none;fill-rule:nonzero;fill:rgb(100%,100%,100%);fill-opacity:1;" d="M 291.667969 312.5 C 291.667969 335.417969 272.917969 354.167969 250 354.167969 C 227.082031 354.167969 208.332031 335.417969 208.332031 312.5 C 208.332031 289.582031 227.082031 270.832031 250 270.832031 C 272.917969 270.832031 291.667969 289.582031 291.667969 312.5 Z M 291.667969 312.5 "/>
<path style="fill:none;stroke-width:2;stroke-linecap:butt;stroke-linejoin:miter;stroke:rgb(100%,100%,100%);stroke-opacity:1;stroke-miterlimit:10;" d="M 17.000063 9 C 17.000063 9 17.000063 7.400062 17.000063 6.999938 C 17.000063 4.2 14.799938 2.000062 12 2.000062 C 9.200062 2.000062 6.999938 4.2 6.999938 6.999938 C 6.999938 7.400062 6.999938 9 6.999938 9 M 18 21 L 6 21 C 5.448 21 5.000063 20.552063 5.000063 20.000063 L 5.000063 9.999937 C 5.000063 9.447938 5.448 9 6 9 L 18 9 C 18.552 9 18.999938 9.447938 18.999938 9.999937 L 18.999938 20.000063 C 18.999938 20.552063 18.552 21 18 21 Z M 18 21 " transform="matrix(20.833333,0,0,20.833333,0,0)"/>
</g>
</svg>
